<?xml version="1.0" standalone="no"?> <!DOCTYPE svg PUBLIC "-//W3C//DTD SVG 20010904//EN" "http://www.w3.org/TR/2001/REC-SVG-20010904/DTD/svg10.dtd"> <svg version="1.0" xmlns="http://www.w3.org/2000/svg" width="1800.000000pt" height="1800.000000pt" viewBox="0 0 1800.000000 1800.000000" preserveAspectRatio="xMidYMid meet"> <g transform="translate(0.000000,1800.000000) scale(0.100000,-0.100000)" fill="#c6ea6c" stroke="none"> <path d="M8890 13376 c-40 -27 -73 -69 -83 -106 -4 -14 -6 -551 -6 -1195 2 -1875 6 -2436 17 -2447 12 -12 356 -7 369 5 4 5 8 819 8 1810 0 1689 -1 1804 -17 1837 -23 45 -35 60 -79 93 -31 23 -45 27 -105 26 -55 0 -76 -5 -104 -23z m184 -87 c15 -12 26 -29 24 -38 -1 -9 5 -32 14 -51 15 -32 17 -149 19 -1292 2 -691 0 -1260 -4 -1264 -4 -4 -30 14 -57 41 -40 39 -51 59 -60 101 -6 28 -8 63 -4 77 5 24 -17 106 -37 132 -4 6 -10 80 -12 165 -9 255 -31 422 -75 555 -15 44 -17 122 -19 670 -1 341 1 662 4 713 5 86 8 95 35 123 17 16 44 36 62 43 17 7 37 20 45 29 18 22 33 21 65 -4z m-104 1 c0 -5 -7 -10 -15 -10 -8 0 -15 5 -15 10 0 6 7 10 15 10 8 0 15 -4 15 -10z m-76 -2075 c4 -104 12 -188 20 -208 7 -17 21 -64 31 -103 19 -73 15 -115 -8 -97 -6 6 -25 13 -40 17 -18 4 -32 17 -38 34 -11 28 -5 514 6 533 16 25 23 -14 29 -176z m19 -445 c19 -12 40 -33 46 -48 7 -15 41 -58 76 -94 35 -37 67 -79 71 -94 9 -33 -13 -72 -55 -99 -16 -11 -31 -24 -31 -30 -1 -13 -84 -63 -118 -71 -15 -4 -33 -11 -39 -17 -10 -7 -13 39 -13 225 0 129 3 238 7 241 10 11 19 9 56 -13z m213 -445 l-1 -94 -54 -51 c-29 -27 -57 -50 -61 -50 -4 0 -31 27 -59 60 -43 49 -52 65 -47 85 4 14 10 25 14 25 19 0 102 63 102 77 0 11 7 14 23 10 12 -3 35 3 52 13 17 10 31 19 32 19 0 1 0 -42 -1 -94z m-218 -176 c26 -25 30 -34 22 -49 -10 -19 -40 -40 -57 -40 -11 0 -33 59 -33 87 0 43 24 44 68 2z m212 -44 c11 -14 18 -119 11 -175 -1 -8 1 -50 5 -93 6 -66 4 -80 -11 -97 -16 -18 -16 -20 -1 -26 9 -3 16 -12 16 -20 0 -14 -8 -15 -169 -18 -69 -1 -91 15 -55 41 17 13 15 13 -22 7 l-42 -6 -7 51 c-11 79 8 164 41 184 20 12 17 24 -8 31 -17 4 -20 8 -11 17 8 8 16 8 31 0 29 -15 28 -16 53 29 16 28 29 40 45 40 13 0 26 5 29 10 6 9 60 37 76 39 4 1 12 -6 19 -14z"/> <path d="M5535 12730 c-38 -4 -104 -11 -145 -14 -132 -12 -385 -58 -470 -85 -14 -5 -52 -16 -85 -26 -85 -25 -186 -63 -283 -107 -34 -15 -64 -28 -67 -28 -8 0 -227 -131 -258 -154 -157 -119 -316 -272 -425 -412 -18 -23 -32 -47 -32 -53 0 -6 -4 -11 -8 -11 -5 0 -14 -10 -21 -22 -6 -13 -20 -36 -31 -53 -52 -79 -156 -304 -180 -390 -4 -16 -13 -43 -18 -60 -23 -67 -42 -143 -42 -168 0 -14 -5 -38 -11 -54 -6 -15 -16 -110 -23 -210 -19 -255 -7 -426 45 -663 23 -105 32 -136 40 -144 5 -6 9 -18 9 -28 0 -40 108 -261 186 -378 165 -251 387 -461 654 -619 58 -34 112 -67 120 -72 19 -11 252 -126 343 -168 37 -17 74 -31 81 -31 8 0 17 -4 20 -9 3 -5 18 -12 32 -15 15 -4 54 -20 88 -36 33 -15 86 -38 116 -50 54 -22 136 -58 195 -85 62 -29 142 -63 195 -85 112 -45 126 -51 152 -66 14 -7 32 -14 39 -14 7 0 20 -6 28 -14 9 -7 39 -21 66 -31 28 -10 73 -28 100 -40 28 -13 71 -32 97 -44 26 -11 53 -21 60 -21 8 0 18 -4 24 -9 5 -5 113 -53 239 -106 127 -54 253 -108 280 -120 28 -13 61 -26 75 -30 14 -4 34 -14 45 -21 11 -8 26 -14 34 -14 16 0 241 -110 316 -154 213 -127 348 -290 417 -502 20 -61 22 -90 22 -259 1 -171 -2 -197 -23 -265 -48 -157 -138 -302 -242 -393 -57 -50 -209 -142 -279 -170 -98 -39 -155 -57 -178 -57 -13 0 -32 -5 -42 -10 -22 -12 -124 -25 -310 -41 -162 -13 -1034 -7 -1110 9 -30 6 -77 15 -105 21 -77 15 -138 30 -160 41 -51 23 -114 50 -120 50 -19 0 -171 103 -232 158 -162 143 -293 403 -318 632 -7 64 -32 117 -71 152 -42 37 -86 40 -509 36 -458 -4 -468 -5 -514 -73 -23 -34 -24 -40 -18 -158 3 -67 11 -147 17 -177 33 -156 70 -297 90 -345 5 -11 18 -49 30 -85 22 -67 114 -254 159 -325 41 -64 50 -79 60 -101 5 -12 13 -23 18 -25 4 -2 20 -22 34 -44 48 -74 205 -240 329 -349 124 -108 353 -245 537 -322 49 -20 97 -40 108 -45 11 -5 49 -18 85 -29 36 -11 81 -26 100 -32 19 -6 51 -15 70 -19 19 -4 78 -17 130 -29 134 -31 305 -52 560 -70 272 -18 727 -8 970 21 47 6 119 14 160 19 41 5 98 15 125 21 28 6 82 18 120 26 109 23 246 64 330 98 72 29 79 32 175 77 52 25 105 48 118 52 12 4 22 11 22 16 0 5 10 12 22 16 22 7 149 91 223 148 146 112 340 325 437 481 71 115 150 289 199 440 10 33 26 81 34 106 8 26 15 55 15 65 0 11 6 48 14 84 61 276 48 688 -29 965 -8 28 -16 59 -19 70 -8 34 -36 106 -62 160 -13 29 -24 55 -24 58 0 13 -103 194 -144 250 -118 168 -299 351 -463 471 -71 51 -202 136 -227 147 -12 5 -34 17 -51 27 -48 29 -165 88 -240 122 -38 17 -83 37 -98 45 -16 8 -33 15 -37 15 -5 0 -53 20 -106 45 -53 25 -100 45 -104 45 -5 0 -21 7 -37 15 -34 17 -119 55 -193 85 -30 13 -78 33 -107 46 -28 13 -55 24 -59 24 -4 0 -28 10 -53 21 -25 12 -59 28 -76 35 -16 7 -55 24 -85 37 -30 14 -127 55 -215 92 -88 37 -173 73 -190 80 -16 8 -48 21 -70 30 -22 9 -49 20 -60 25 -11 5 -49 21 -85 36 -36 14 -90 37 -120 51 -73 34 -94 43 -230 98 -156 64 -145 59 -235 99 -142 63 -198 96 -320 191 -129 102 -211 197 -262 305 -63 134 -83 226 -83 381 0 284 117 521 330 668 100 69 295 149 417 171 27 4 73 13 103 18 175 32 888 40 1165 13 115 -11 266 -39 280 -52 5 -5 17 -9 28 -9 29 0 152 -56 242 -110 110 -66 213 -164 279 -263 89 -136 120 -214 156 -390 21 -102 37 -136 80 -174 51 -45 89 -48 525 -48 377 0 413 1 443 18 46 25 64 73 63 166 -3 231 -73 519 -177 734 -8 16 -14 33 -14 38 0 4 -20 43 -45 85 -25 41 -45 79 -45 82 0 14 -123 188 -186 263 -206 248 -457 435 -756 567 -261 115 -437 160 -823 213 -104 14 -949 21 -1060 9z"/> <path d="M9431 12513 c-23 -11 -41 -32 -55 -62 -21 -46 -21 -48 -24 -1328 l-2 -1281 21 -57 c17 -44 29 -61 62 -82 144 -88 218 -154 302 -268 59 -81 82 -135 136 -321 14 -47 11 -291 -5 -364 -23 -113 -67 -224 -115 -293 -68 -99 -188 -213 -312 -296 -20 -13 -47 -40 -60 -59 l-24 -36 -3 -1484 c-2 -1057 1 -1496 9 -1525 6 -22 26 -56 44 -74 30 -30 38 -33 94 -33 144 0 371 92 530 215 213 163 352 385 415 661 14 65 16 260 16 2009 0 1415 3 1942 11 1958 27 52 50 67 104 67 37 0 59 -6 82 -22 16 -13 173 -169 349 -347 175 -178 441 -446 589 -595 308 -310 294 -301 465 -300 86 0 99 3 140 28 25 16 311 294 637 619 325 325 602 596 615 603 13 8 50 13 84 14 64 0 85 -12 113 -67 8 -16 11 -528 12 -1895 0 -1030 4 -1909 9 -1953 10 -99 29 -190 46 -232 8 -17 14 -36 14 -42 0 -6 4 -19 9 -29 5 -9 27 -53 48 -97 59 -123 168 -263 260 -332 206 -155 336 -215 539 -248 85 -14 98 -14 124 0 16 8 36 28 44 43 21 40 26 7412 6 7455 -18 37 -69 67 -113 67 -65 0 -134 -35 -230 -115 -26 -22 -543 -534 -1148 -1138 -1143 -1141 -1125 -1124 -1224 -1143 -60 -11 -127 31 -240 148 -159 166 -468 482 -1495 1528 -278 283 -538 546 -578 586 -112 110 -226 154 -301 117z"/> <path d="M9142 9478 c-23 -23 -12 -49 39 -97 29 -28 49 -54 45 -60 -5 -8 -94 -11 -294 -11 -244 0 -291 -2 -310 -16 -26 -18 -27 -27 -6 -48 13 -14 56 -16 319 -16 167 0 306 -4 309 -9 3 -5 -16 -28 -42 -52 -55 -50 -71 -75 -65 -100 9 -31 40 -33 76 -4 73 62 197 186 197 198 0 13 -159 177 -205 211 -24 19 -47 20 -63 4z"/> <path d="M8778 8828 c-13 -13 -53 -48 -88 -78 -81 -70 -110 -100 -110 -115 0 -6 41 -50 92 -96 50 -46 99 -91 107 -100 25 -25 47 -29 70 -12 31 21 19 48 -46 107 -30 27 -50 53 -46 57 5 5 146 10 313 11 l305 3 3 24 c7 49 -9 52 -318 51 -209 -1 -286 2 -288 10 -3 7 16 32 42 56 48 46 60 86 30 98 -27 10 -40 7 -66 -16z"/> <path d="M8818 8233 c-10 -12 -13 -390 -16 -1864 -3 -1017 -1 -1869 2 -1893 9 -55 63 -115 131 -145 47 -21 48 -21 108 -3 37 12 72 31 93 52 69 67 65 -65 62 1992 -2 1021 -7 1860 -11 1864 -4 5 -86 9 -182 10 -146 2 -176 0 -187 -13z m322 -33 c17 -9 19 -22 19 -112 0 -141 -22 -173 -72 -105 -31 40 -38 88 -21 144 13 43 13 44 -12 53 -55 21 -57 18 -49 -77 8 -101 14 -118 49 -156 14 -15 26 -31 26 -34 0 -3 14 -22 31 -44 l30 -38 -23 -33 c-25 -37 -107 -118 -162 -161 -26 -21 -44 -27 -68 -25 l-33 3 -3 63 c-2 35 1 69 7 76 13 16 7 111 -8 130 -10 12 -12 44 -7 128 7 134 8 160 4 179 -5 24 249 32 292 9z m2 -770 c-2 -238 -6 -298 -17 -309 -12 -13 -24 -4 -89 65 -41 43 -75 85 -76 92 0 7 11 28 24 45 30 40 43 116 25 148 -31 55 -38 91 -24 112 35 50 132 146 145 144 13 -2 15 -41 12 -297z m-212 91 c0 -9 5 -22 12 -29 18 -18 17 -130 -1 -141 -21 -14 -58 8 -72 41 -6 16 -10 30 -8 31 2 1 13 7 24 13 15 9 19 20 17 49 -2 21 -1 44 2 52 7 18 26 7 26 -16z m-20 -306 c7 -8 23 -15 36 -15 13 0 24 -6 24 -12 0 -7 13 -26 29 -41 29 -28 34 -46 47 -161 4 -27 1 -75 -6 -106 l-12 -58 43 -63 c41 -61 44 -68 47 -144 1 -44 5 -535 8 -1091 l5 -1011 -26 -52 c-30 -60 -61 -68 -90 -25 -14 22 -22 25 -46 20 -34 -6 -73 14 -92 48 -8 16 -12 257 -13 941 -1 506 -5 1107 -9 1335 -3 229 -3 423 1 433 8 21 37 22 54 2z m220 -178 c0 -20 0 -20 -15 -1 -20 27 -20 51 0 34 8 -7 15 -22 15 -33z m0 -113 c12 -31 13 -111 2 -118 -13 -8 -52 32 -52 52 1 80 30 119 50 66z"/> <path d="M8500 8185 c7 -8 16 -15 21 -15 5 0 9 7 9 15 0 9 -9 15 -21 15 -18 0 -19 -2 -9 -15z"/> <path d="M10942 7899 c2 -6 8 -10 13 -10 5 0 11 4 13 10 2 6 -4 11 -13 11 -9 0 -15 -5 -13 -11z"/> <path d="M8957 3662 c-20 -72 -37 -87 -111 -101 -33 -6 -62 -14 -65 -17 -11 -11 32 -33 84 -44 48 -10 55 -15 68 -48 8 -20 20 -63 27 -94 7 -32 16 -58 20 -58 8 0 34 90 45 152 5 32 12 40 50 57 25 11 45 25 45 30 0 6 -18 14 -40 17 -49 8 -54 14 -75 92 -10 34 -21 65 -25 67 -4 2 -14 -22 -23 -53z"/> <path d="M16990 1341 c-5 -11 -10 -25 -10 -32 0 -20 -41 -99 -51 -99 -5 0 -9 -5 -9 -11 0 -45 -191 -199 -248 -199 -19 0 -42 -18 -42 -32 0 -4 8 -8 18 -8 72 0 302 -193 302 -254 0 -9 7 -19 15 -22 8 -4 15 -18 15 -33 0 -15 6 -36 14 -47 14 -19 15 -19 21 1 3 11 13 33 21 48 7 16 14 35 14 42 0 8 6 18 13 22 6 4 18 19 25 33 7 14 23 37 36 51 29 33 151 129 164 129 6 0 23 7 39 14 15 8 37 18 48 21 20 6 20 7 1 21 -11 8 -30 14 -42 14 -13 0 -25 4 -28 9 -3 5 -25 19 -48 31 -24 12 -59 36 -78 53 -44 38 -130 151 -130 170 0 8 -7 20 -15 27 -8 7 -15 25 -15 41 0 33 -15 38 -30 10z"/> </g> </svg>